<?xml version="1.0" encoding="iso-8859-1"?>
<!-- Generator: Adobe Illustrator 18.0.0, SVG Export Plug-In . SVG Version: 6.00 Build 0)  -->
<!DOCTYPE svg PUBLIC "-//W3C//DTD SVG 1.1//EN" "http://www.w3.org/Graphics/SVG/1.1/DTD/svg11.dtd">
<svg version="1.1" id="Capa_1" xmlns="http://www.w3.org/2000/svg" xmlns:xlink="http://www.w3.org/1999/xlink" x="0px" y="0px"
	 viewBox="0 0 466.061 466.061" style="enable-background:new 0 0 466.061 466.061;" xml:space="preserve">
<g>
	<path d="M216.735,194.985v-65.37h-15v65.37c-10.942,3.242-18.95,13.381-18.95,25.361c0,14.585,11.866,26.45,26.45,26.45
		c11.98,0,22.119-8.008,25.361-18.95h36.642v-15h-36.642C232.059,204.283,225.298,197.522,216.735,194.985z M209.235,231.796
		c-6.313,0-11.45-5.137-11.45-11.45s5.137-11.45,11.45-11.45c6.314,0,11.451,5.137,11.451,11.45S215.549,231.796,209.235,231.796z"
		/>
	<rect x="231.843" y="321.152" width="134.775" height="15"/>
	<rect x="380.395" y="321.152" width="28.341" height="15"/>
	<rect x="231.843" y="351.151" width="134.775" height="15"/>
	<rect x="380.395" y="351.151" width="28.341" height="15"/>
	<rect x="231.843" y="381.149" width="134.775" height="15"/>
	<rect x="380.395" y="381.149" width="28.341" height="15"/>
	<rect x="231.843" y="411.148" width="134.775" height="15"/>
	<rect x="380.395" y="411.148" width="28.341" height="15"/>
	<path d="M466.061,435.526l-27.217-162.072h-27.201c4.521-17.269,6.817-35.087,6.817-53.11c0-115.37-93.86-209.23-209.23-209.23
		S0,104.975,0,220.345c0,112.86,89.825,205.119,201.735,209.081v25.521h237.109v-19.42H466.061z M448.202,420.526h-9.357v-53.369
		L448.202,420.526z M15,220.345c0-107.099,87.131-194.23,194.23-194.23s194.23,87.131,194.23,194.23
		c0,18.064-2.481,35.902-7.364,53.11h-32.189c5.859-17.026,8.833-34.841,8.833-53.11c0-90.154-73.35-163.5-163.51-163.5
		c-90.154,0-163.5,73.346-163.5,163.5c0,87.642,69.317,159.39,156.005,163.321v30.75C98.098,410.462,15,324.932,15,220.345z
		 M201.735,356.077v12.58c-75.929-3.793-137.02-64.882-140.816-140.811h12.585v-15H60.919
		c3.795-75.929,64.886-137.019,140.816-140.813v12.582h15V72.033c75.931,3.798,137.021,64.886,140.816,140.812h-12.585v15h12.589
		c-0.775,15.715-4.003,31.005-9.608,45.609H201.735V356.077z M423.844,439.946H216.735v-63.597v-20.272v-67.622h207.109V439.946z"/>
</g>
<g>
</g>
<g>
</g>
<g>
</g>
<g>
</g>
<g>
</g>
<g>
</g>
<g>
</g>
<g>
</g>
<g>
</g>
<g>
</g>
<g>
</g>
<g>
</g>
<g>
</g>
<g>
</g>
<g>
</g>
</svg>
